#!OML:ASF F:\VICON\USERDATA\INSTALL\rory3\rory3.ASF
:FULLY-SPECIFIED
:DEGREES
106
root 0.9628166724941064 17.787059624243636 47.724045721001644 -4.335750685487576 -0.41552158628276264 0.3157205569657928
lfemur -0.33851012157832816 -2.9248961808679574 -25.595055446551072
ltibia 28.741177049937942
lfoot -7.583239450456646 -4.573296682910856
ltoes -23.99889068086021
rfemur -28.871844251892764 -4.379077968625127 22.85592573967798
rtibia 46.35320312717044
rfoot -3.199539705051092 -12.64103013024932
rtoes 4.93545155458963
lowerback 12.288115521842933 -0.24267696519836554 -2.6075556109260685
upperback 0.4688043480097453 -0.5733623286591365 1.1982460461337672
thorax -6.099314302514714 -0.2165206847471026 2.798692701282034
lowerneck -16.03176642418757 -3.391398767683552 -3.158400998014377
upperneck 21.351255547700244 -4.561154073303996 3.0381273789549423
head 9.561655829468402 -2.0292329395708575 0.6913340440944652
lclavicle 3.0122167393470837e-16 5.655861301744956e-17
lhumerus -32.56796246160512 1.258412621637786 79.70021044568736
lradius 32.94130794363928
lwrist 11.30557967791806
lhand -29.33681010053162 18.31185507318741
lfingers 7.125020000000001
lthumb -2.6942746718502955 47.920708339700965
rclavicle 2.981794512713928e-16 5.4648127169926486e-17
rhumerus -32.201814542502945 -18.46234988545677 -77.2751032723301
rradius 27.079492138853727
rwrist 2.1459473832563205
rhand -17.832298158802182 22.356459814720296
rfingers 7.125020000000001
rthumb 8.754222689794783 -7.156131675439803
107
root 0.942287192759488 17.787263818444803 48.463969893297026 -3.7604805923228186 0.03700488222809151 0.7381859830644082
lfemur 2.6113042905071113 -2.7992190812669637 -26.055635380884954
ltibia 26.721950042275857
lfoot -6.140717949447295 -5.058849621315856
ltoes -24.42745854157675
rfemur -29.634344591806475 -3.152716247810103 22.332216067661033
rtibia 38.44900748696281
rfoot -2.2247657113766506 -13.356608706286675
rtoes 4.268370170243282
lowerback 12.153081822177256 -0.4306607840929051 -3.073139768653112
upperback 0.4615916993616111 -0.857456390193539 1.2230348817485217
thorax -5.984826294776749 -0.35272336985784924 3.1702439985324475
lowerneck -16.18657643849235 -3.458468814365831 -3.281873563182078
upperneck 21.140667041413504 -4.662117843808014 3.2440115741202455
head 9.473749675191286 -2.0608520537440014 0.8087707484583833
lclavicle 3.0028833176036727e-16 5.597860625403893e-17
lhumerus -32.624120089532404 1.1783837260823593 79.78345317610449
lradius 33.10752752164627
lwrist 11.194898373739813
lhand -29.326426924254932 18.27113953500346
lfingers 7.125020000000001
lthumb -2.666384115327227 47.89353911169489
rclavicle 2.9853290917904844e-16 5.490184523396447e-17
rhumerus -32.350241903497334 -18.553614856363325 -77.11703172947371
rradius 26.865637910253003
rwrist 2.4535930112686053
rhand -17.83444402071577 22.53423315978856
rfingers 7.125020000000001
rthumb 8.773413968578966 -6.940418627177932
108
root 0.91444362207655 17.762628160115565 49.0546443310419 -3.1462585431415477 0.4734956958901235 1.5542251619979313
lfemur 6.135763780127495 -2.806857519601106 -26.774485736406923
ltibia 23.57652586709674
lfoot -7.675734509389742 -5.140772500310309
ltoes -27.451205230972615
rfemur -29.629623127069593 -1.3124101900813425 20.768761327595463
rtibia 30.438193580163663
rfoot -2.1114092457756124 -13.894525733691403
rtoes 3.067909277904522
lowerback 11.62452557185591 -0.5911795054279309 -3.876346120572812
upperback 0.37146928064344137 -1.1588496632970315 1.1835988829752393
thorax -5.863885871056854 -0.4919079301452264 3.531489718842888
lowerneck -16.358566512618236 -3.4959692347967324 -3.3372440682273883
upperneck 20.96735861915493 -4.724241201391488 3.3894818622535263
head 9.403282702739451 -2.0810996169189475 0.8973193822689647
lclavicle 2.9729943361468863e-16 5.421315336747982e-17
lhumerus -32.5224665445084 1.3192831856673513 79.87912714206367
lradius 33.146170457554454
lwrist 11.009306699691585
lhand -29.33195807816466 18.231337749636452
lfingers 7.125020000000001
lthumb -2.6339594675063713 47.92767130985142
rclavicle 2.986963516940055e-16 5.5019045529164824e-17
rhumerus -32.44646765104242 -18.60399956565139 -76.9582177548492
rradius 26.633280770572508
rwrist 2.6942501497198226
rhand -17.811330259010678 22.77450931662214
rfingers 7.125020000000001
rthumb 8.802204843020494 -6.6997984053898385
109
root 0.8857397432760887 17.753683677118 49.71308026715145 -2.2948247305566625 1.5493726418889824 2.0456459083184457
lfemur 9.675787386509626 -3.0817287050404203 -26.829047591079647
ltibia 20.669794814759733
lfoot -7.989588891613412 -5.72567004411769
ltoes -27.958002952787414
rfemur -28.963203211294136 1.6301671110611347 18.6198186374989
rtibia 23.234000975903058
rfoot -2.677173535300142 -13.761298920315777
rtoes 1.7194500821271865
lowerback 10.816313536095503 -0.9792377194107142 -4.655419838719108
upperback 0.2543314223142331 -1.748263988300055 1.1586826758962294
thorax -5.739811824439592 -0.7653345617195935 3.982928285185589
lowerneck -16.542369096284204 -3.5137131686568024 -3.3660395364319844
upperneck 20.89605836830881 -4.742835738007335 3.484378515752507
head 9.371296188916862 -2.089463722218693 0.9612393127523318
lclavicle 2.977943470028545e-16 5.444823120479735e-17
lhumerus -32.324060934320045 1.8651709235637968 79.91000146226045
lradius 33.11457597001346
lwrist 10.75519160898206
lhand -29.31708452981481 18.257906771807313
lfingers 7.125020000000001
lthumb -2.5824696482099876 48.057622300983276
rclavicle 2.9922219267694314e-16 5.539688573856323e-17
rhumerus -32.5575174808579 -18.673263622613316 -76.70081457964487
rradius 26.342660408936197
rwrist 2.9415974677874157
rhand -17.781976050599603 23.01856451487301
rfingers 7.125020000000001
rthumb 8.817510718783602 -6.4647455885550675
